<svg width="607" height="89" viewBox="0 0 607 89" fill="none" xmlns="http://www.w3.org/2000/svg">
<mask id="path-1-outside-1_83_1050" maskUnits="userSpaceOnUse" x="-1" y="-1" width="609" height="91" fill="black">
<rect fill="white" x="-1" y="-1" width="609" height="91"/>
<path d="M0.622 86L29.806 2.78H52.492L82.588 86H68.452L42.118 11.9L47.704 14.522H33.91L39.838 11.9L14.302 86H0.622ZM19.546 62.516L23.878 50.66H58.762L63.208 62.516H19.546ZM107.628 86.456V75.056H129.63C133.734 75.056 136.888 73.916 139.092 71.636C141.372 69.356 142.512 66.24 142.512 62.288C142.512 58.26 141.41 55.144 139.206 52.94C137.002 50.66 133.81 49.52 129.63 49.52H107.628V40.856H128.262C133.734 40.856 138.56 41.54 142.74 42.908C146.92 44.2 150.226 46.366 152.658 49.406C155.09 52.446 156.306 56.588 156.306 61.832V63.428C156.306 68.292 155.242 72.472 153.114 75.968C151.062 79.388 147.946 82.01 143.766 83.834C139.662 85.582 134.494 86.456 128.262 86.456H107.628ZM96.3419 86.456V2.21H109.908V86.456H96.3419ZM107.628 47.126V38.576H126.552C130.884 38.576 134.038 37.436 136.014 35.156C138.066 32.8 139.092 29.798 139.092 26.15C139.092 22.426 138.066 19.424 136.014 17.144C134.038 14.788 130.884 13.61 126.552 13.61H107.628V2.21H124.842C134.114 2.21 141.106 4.186 145.818 8.138C150.53 12.014 152.886 17.6 152.886 24.896V26.492C152.886 31.66 151.67 35.764 149.238 38.804C146.882 41.844 143.576 44.01 139.32 45.302C135.14 46.518 130.314 47.126 124.842 47.126H107.628ZM212.016 88.052C204.492 88.052 197.994 86.76 192.522 84.176C187.126 81.516 182.642 78.02 179.07 73.688C175.498 69.356 172.838 64.72 171.09 59.78C169.418 54.764 168.582 49.976 168.582 45.416V42.908C168.582 37.892 169.456 32.876 171.204 27.86C173.028 22.844 175.726 18.284 179.298 14.18C182.946 9.99999 187.468 6.65599 192.864 4.14799C198.336 1.63999 204.72 0.385995 212.016 0.385995C219.312 0.385995 225.658 1.63999 231.054 4.14799C236.45 6.65599 240.972 9.99999 244.62 14.18C248.268 18.284 250.966 22.844 252.714 27.86C254.538 32.876 255.45 37.892 255.45 42.908V45.416C255.45 49.976 254.576 54.764 252.828 59.78C251.08 64.72 248.42 69.356 244.848 73.688C241.352 78.02 236.868 81.516 231.396 84.176C225.924 86.76 219.464 88.052 212.016 88.052ZM212.016 75.398C216.576 75.398 220.68 74.562 224.328 72.89C227.976 71.218 231.092 68.938 233.676 66.05C236.26 63.162 238.198 59.856 239.49 56.132C240.858 52.408 241.542 48.456 241.542 44.276C241.542 39.868 240.858 35.802 239.49 32.078C238.122 28.278 236.146 24.972 233.562 22.16C231.054 19.272 227.976 17.03 224.328 15.434C220.68 13.838 216.576 13.04 212.016 13.04C207.456 13.04 203.352 13.838 199.704 15.434C196.056 17.03 192.94 19.272 190.356 22.16C187.772 24.972 185.796 28.278 184.428 32.078C183.136 35.802 182.49 39.868 182.49 44.276C182.49 48.456 183.136 52.408 184.428 56.132C185.796 59.856 187.772 63.162 190.356 66.05C192.94 68.938 196.056 71.218 199.704 72.89C203.352 74.562 207.456 75.398 212.016 75.398ZM306.093 88.052C298.417 88.052 291.957 86.608 286.713 83.72C281.545 80.756 277.593 76.614 274.857 71.294C272.197 65.974 270.867 59.78 270.867 52.712V2.78H284.547V53.852C284.547 58.108 285.383 61.87 287.055 65.138C288.727 68.406 291.159 70.952 294.351 72.776C297.543 74.524 301.457 75.398 306.093 75.398C310.729 75.398 314.605 74.524 317.721 72.776C320.913 71.028 323.345 68.52 325.017 65.252C326.689 61.984 327.525 58.184 327.525 53.852V2.78H341.205V52.712C341.205 59.78 339.875 65.974 337.215 71.294C334.555 76.614 330.603 80.756 325.359 83.72C320.191 86.608 313.769 88.052 306.093 88.052ZM378.05 86V12.584H391.73V86H378.05ZM353.426 14.864V2.78H416.468V14.864H353.426ZM489.228 88.052C481.552 88.052 475.092 86.608 469.848 83.72C464.68 80.756 460.728 76.614 457.992 71.294C455.332 65.974 454.002 59.78 454.002 52.712V2.78H467.682V53.852C467.682 58.108 468.518 61.87 470.19 65.138C471.862 68.406 474.294 70.952 477.486 72.776C480.678 74.524 484.592 75.398 489.228 75.398C493.864 75.398 497.74 74.524 500.856 72.776C504.048 71.028 506.48 68.52 508.152 65.252C509.824 61.984 510.66 58.184 510.66 53.852V2.78H524.34V52.712C524.34 59.78 523.01 65.974 520.35 71.294C517.69 76.614 513.738 80.756 508.494 83.72C503.326 86.608 496.904 88.052 489.228 88.052ZM572.808 88.052C565.664 88.052 559.584 86.912 554.568 84.632C549.628 82.276 545.866 79.084 543.282 75.056C540.698 70.952 539.406 66.316 539.406 61.148H552.858C552.858 63.504 553.504 65.822 554.796 68.102C556.088 70.382 558.178 72.282 561.066 73.802C563.954 75.246 567.868 75.968 572.808 75.968C577.292 75.968 580.978 75.322 583.866 74.03C586.83 72.738 588.996 71.028 590.364 68.9C591.808 66.772 592.53 64.416 592.53 61.832C592.53 58.64 591.162 56.056 588.426 54.08C585.69 52.028 581.586 50.774 576.114 50.318L567.792 49.52C560.116 48.912 553.998 46.556 549.438 42.452C544.878 38.272 542.598 32.8 542.598 26.036C542.598 20.868 543.814 16.384 546.246 12.584C548.754 8.784 552.25 5.82 556.734 3.69199C561.218 1.48799 566.424 0.385995 572.352 0.385995C578.432 0.385995 583.714 1.48799 588.198 3.69199C592.682 5.82 596.14 8.86 598.572 12.812C601.08 16.688 602.334 21.324 602.334 26.72H588.882C588.882 24.288 588.274 22.008 587.058 19.88C585.918 17.676 584.132 15.89 581.7 14.522C579.268 13.154 576.152 12.47 572.352 12.47C568.704 12.47 565.664 13.116 563.232 14.408C560.876 15.7 559.09 17.372 557.874 19.424C556.658 21.476 556.05 23.68 556.05 26.036C556.05 28.848 557.114 31.356 559.242 33.56C561.37 35.688 564.638 36.942 569.046 37.322L577.254 38.006C583.106 38.462 588.16 39.716 592.416 41.768C596.748 43.744 600.092 46.404 602.448 49.748C604.88 53.092 606.096 57.12 606.096 61.832C606.096 67 604.69 71.56 601.878 75.512C599.142 79.464 595.266 82.542 590.25 84.746C585.31 86.95 579.496 88.052 572.808 88.052Z"/>
</mask>
<path d="M0.622 86L-0.321656 85.6691L-0.788392 87H0.622V86ZM29.806 2.78V1.78H29.097L28.8623 2.44907L29.806 2.78ZM52.492 2.78L53.4324 2.43991L53.1937 1.78H52.492V2.78ZM82.588 86V87H84.013L83.5284 85.6599L82.588 86ZM68.452 86L67.5097 86.3349L67.7461 87H68.452V86ZM42.118 11.9L42.5429 10.9948L40.3731 9.97626L41.1757 12.2349L42.118 11.9ZM47.704 14.522V15.522L48.1289 13.6168L47.704 14.522ZM33.91 14.522L33.5055 13.6075L33.91 15.522V14.522ZM39.838 11.9L40.7834 12.2258L41.5305 10.0579L39.4335 10.9855L39.838 11.9ZM14.302 86V87H15.0151L15.2474 86.3258L14.302 86ZM19.546 62.516L18.6067 62.1728L18.116 63.516H19.546V62.516ZM23.878 50.66V49.66H23.1787L22.9387 50.3168L23.878 50.66ZM58.762 50.66L59.6983 50.3089L59.455 49.66H58.762V50.66ZM63.208 62.516V63.516H64.651L64.1443 62.1649L63.208 62.516ZM1.56566 86.3309L30.7497 3.11092L28.8623 2.44907L-0.321656 85.6691L1.56566 86.3309ZM29.806 3.78H52.492V1.78H29.806V3.78ZM51.5516 3.12008L81.6476 86.3401L83.5284 85.6599L53.4324 2.43991L51.5516 3.12008ZM82.588 85H68.452V87H82.588V85ZM69.3943 85.6651L43.0603 11.5651L41.1757 12.2349L67.5097 86.3349L69.3943 85.6651ZM41.6931 12.8052L47.2791 15.4272L48.1289 13.6168L42.5429 10.9948L41.6931 12.8052ZM47.704 13.522H33.91V15.522H47.704V13.522ZM34.3145 15.4365L40.2425 12.8145L39.4335 10.9855L33.5055 13.6075L34.3145 15.4365ZM38.8926 11.5742L13.3566 85.6742L15.2474 86.3258L40.7834 12.2258L38.8926 11.5742ZM14.302 85H0.622V87H14.302V85ZM20.4853 62.8592L24.8173 51.0032L22.9387 50.3168L18.6067 62.1728L20.4853 62.8592ZM23.878 51.66H58.762V49.66H23.878V51.66ZM57.8257 51.0111L62.2717 62.8671L64.1443 62.1649L59.6983 50.3089L57.8257 51.0111ZM63.208 61.516H19.546V63.516H63.208V61.516ZM107.628 86.456H106.628V87.456H107.628V86.456ZM107.628 75.056V74.056H106.628V75.056H107.628ZM139.092 71.636L138.385 70.9289L138.379 70.9349L138.373 70.941L139.092 71.636ZM139.206 52.94L138.487 53.635L138.493 53.6411L138.499 53.6471L139.206 52.94ZM107.628 49.52H106.628V50.52H107.628V49.52ZM107.628 40.856V39.856H106.628V40.856H107.628ZM142.74 42.908L142.429 43.8584L142.437 43.861L142.445 43.8634L142.74 42.908ZM152.658 49.406L151.877 50.0307L152.658 49.406ZM153.114 75.968L152.26 75.448L152.256 75.4535L153.114 75.968ZM143.766 83.834L144.158 84.7541L144.166 84.7505L143.766 83.834ZM96.3419 86.456H95.3419V87.456H96.3419V86.456ZM96.3419 2.21V1.21H95.3419V2.21H96.3419ZM109.908 2.21H110.908V1.21H109.908V2.21ZM109.908 86.456V87.456H110.908V86.456H109.908ZM107.628 47.126H106.628V48.126H107.628V47.126ZM107.628 38.576V37.576H106.628V38.576H107.628ZM136.014 35.156L135.26 34.4992L135.258 34.5011L136.014 35.156ZM136.014 17.144L135.248 17.7866L135.259 17.8L135.271 17.813L136.014 17.144ZM107.628 13.61H106.628V14.61H107.628V13.61ZM107.628 2.21V1.21H106.628V2.21H107.628ZM145.818 8.138L145.175 8.90422L145.183 8.91029L145.818 8.138ZM149.238 38.804L148.457 38.1793L148.452 38.1853L148.448 38.1914L149.238 38.804ZM139.32 45.302L139.599 46.2623L139.61 46.2589L139.32 45.302ZM108.628 86.456V75.056H106.628V86.456H108.628ZM107.628 76.056H129.63V74.056H107.628V76.056ZM129.63 76.056C133.921 76.056 137.367 74.8589 139.811 72.331L138.373 70.941C136.409 72.9731 133.547 74.056 129.63 74.056V76.056ZM139.799 72.3431C142.307 69.8349 143.512 66.4416 143.512 62.288H141.512C141.512 66.0384 140.437 68.8771 138.385 70.9289L139.799 72.3431ZM143.512 62.288C143.512 58.0758 142.355 54.6748 139.913 52.2329L138.499 53.6471C140.465 55.6132 141.512 58.4442 141.512 62.288H143.512ZM139.925 52.245C137.478 49.7137 133.991 48.52 129.63 48.52V50.52C133.629 50.52 136.526 51.6063 138.487 53.635L139.925 52.245ZM129.63 48.52H107.628V50.52H129.63V48.52ZM108.628 49.52V40.856H106.628V49.52H108.628ZM107.628 41.856H128.262V39.856H107.628V41.856ZM128.262 41.856C133.653 41.856 138.37 42.5301 142.429 43.8584L143.051 41.9576C138.749 40.5499 133.815 39.856 128.262 39.856V41.856ZM142.445 43.8634C146.458 45.1039 149.585 47.166 151.877 50.0307L153.439 48.7813C150.867 45.566 147.382 43.2961 143.035 41.9526L142.445 43.8634ZM151.877 50.0307C154.125 52.8405 155.306 56.7365 155.306 61.832H157.306C157.306 56.4395 156.055 52.0515 153.439 48.7813L151.877 50.0307ZM155.306 61.832V63.428H157.306V61.832H155.306ZM155.306 63.428C155.306 68.1435 154.276 72.136 152.26 75.4481L153.968 76.4879C156.208 72.808 157.306 68.4405 157.306 63.428H155.306ZM152.256 75.4535C150.326 78.6703 147.384 81.1643 143.366 82.9175L144.166 84.7505C148.508 82.8557 151.798 80.1057 153.971 76.4825L152.256 75.4535ZM143.374 82.914C139.433 84.5927 134.409 85.456 128.262 85.456V87.456C134.579 87.456 139.891 86.5713 144.158 84.754L143.374 82.914ZM128.262 85.456H107.628V87.456H128.262V85.456ZM97.3419 86.456V2.21H95.3419V86.456H97.3419ZM96.3419 3.21H109.908V1.21H96.3419V3.21ZM108.908 2.21V86.456H110.908V2.21H108.908ZM109.908 85.456H96.3419V87.456H109.908V85.456ZM108.628 47.126V38.576H106.628V47.126H108.628ZM107.628 39.576H126.552V37.576H107.628V39.576ZM126.552 39.576C131.044 39.576 134.532 38.3922 136.77 35.8109L135.258 34.5011C133.543 36.4798 130.724 37.576 126.552 37.576V39.576ZM136.768 35.8128C139.005 33.2448 140.092 29.9966 140.092 26.15H138.092C138.092 29.5994 137.127 32.3551 135.26 34.4992L136.768 35.8128ZM140.092 26.15C140.092 22.2345 139.008 18.9761 136.757 16.475L135.271 17.813C137.124 19.8719 138.092 22.6175 138.092 26.15H140.092ZM136.78 16.5014C134.546 13.8374 131.054 12.61 126.552 12.61V14.61C130.714 14.61 133.53 15.7386 135.248 17.7866L136.78 16.5014ZM126.552 12.61H107.628V14.61H126.552V12.61ZM108.628 13.61V2.21H106.628V13.61H108.628ZM107.628 3.21H124.842V1.21H107.628V3.21ZM124.842 3.21C133.994 3.21 140.715 5.16343 145.175 8.90419L146.461 7.37181C141.497 3.20857 134.234 1.21 124.842 1.21V3.21ZM145.183 8.91029C149.618 12.5587 151.886 17.8342 151.886 24.896H153.886C153.886 17.3658 151.442 11.4693 146.453 7.36571L145.183 8.91029ZM151.886 24.896V26.492H153.886V24.896H151.886ZM151.886 26.492C151.886 31.5075 150.707 35.3672 148.457 38.1793L150.019 39.4287C152.633 36.1608 153.886 31.8125 153.886 26.492H151.886ZM148.448 38.1914C146.238 41.043 143.119 43.1036 139.029 44.3451L139.61 46.2589C144.033 44.9164 147.526 42.645 150.028 39.4166L148.448 38.1914ZM139.041 44.3418C134.971 45.5256 130.242 46.126 124.842 46.126V48.126C130.385 48.126 135.309 47.5104 139.599 46.2622L139.041 44.3418ZM124.842 46.126H107.628V48.126H124.842V46.126ZM192.522 84.176L192.08 85.0729L192.088 85.0767L192.095 85.0802L192.522 84.176ZM179.07 73.688L178.299 74.3242L179.07 73.688ZM171.09 59.78L170.142 60.0962L170.145 60.1049L170.148 60.1136L171.09 59.78ZM171.204 27.86L170.264 27.5182L170.26 27.5309L171.204 27.86ZM179.298 14.18L178.545 13.5225L178.544 13.5235L179.298 14.18ZM192.864 4.14799L192.448 3.23892L192.443 3.24116L192.864 4.14799ZM244.62 14.18L243.867 14.8376L243.873 14.8444L244.62 14.18ZM252.714 27.86L251.77 28.1891L251.775 28.2017L252.714 27.86ZM252.828 59.78L253.771 60.1136L253.773 60.1091L252.828 59.78ZM244.848 73.688L244.077 73.0518L244.07 73.06L244.848 73.688ZM231.396 84.176L231.823 85.0803L231.833 85.0754L231.396 84.176ZM224.328 72.89L223.912 71.9809L224.328 72.89ZM239.49 56.132L238.552 55.7872L238.549 55.7957L238.546 55.8042L239.49 56.132ZM239.49 32.078L238.549 32.4167L238.552 32.4228L239.49 32.078ZM233.562 22.16L232.807 22.8157L232.816 22.8263L232.826 22.8366L233.562 22.16ZM224.328 15.434L223.927 16.3502L224.328 15.434ZM199.704 15.434L200.105 16.3502L199.704 15.434ZM190.356 22.16L191.093 22.8367L191.102 22.8268L190.356 22.16ZM184.428 32.078L183.487 31.7393L183.484 31.7502L184.428 32.078ZM184.428 56.132L183.484 56.4598L183.487 56.4683L183.49 56.4768L184.428 56.132ZM190.356 66.05L191.102 65.3832L190.356 66.05ZM199.704 72.89L199.288 73.7991L199.704 72.89ZM212.016 87.052C204.605 87.052 198.259 85.7793 192.949 83.2718L192.095 85.0802C197.729 87.7407 204.38 89.052 212.016 89.052V87.052ZM192.964 83.2791C187.686 80.6771 183.317 77.2669 179.842 73.0518L178.299 74.3242C181.967 78.7731 186.566 82.3549 192.08 85.0729L192.964 83.2791ZM179.842 73.0518C176.339 68.8034 173.739 64.2687 172.033 59.4464L170.148 60.1136C171.937 65.1713 174.658 69.9086 178.299 74.3242L179.842 73.0518ZM172.039 59.4638C170.396 54.5338 169.582 49.8529 169.582 45.416H167.582C167.582 50.0991 168.441 54.9942 170.142 60.0962L172.039 59.4638ZM169.582 45.416V42.908H167.582V45.416H169.582ZM169.582 42.908C169.582 38.0105 170.435 33.1056 172.149 28.1891L170.26 27.5309C168.477 32.6464 167.582 37.7735 167.582 42.908H169.582ZM172.144 28.2017C173.925 23.3034 176.56 18.8497 180.053 14.8365L178.544 13.5235C174.893 17.7183 172.131 22.3846 170.265 27.5182L172.144 28.2017ZM180.052 14.8375C183.601 10.7704 188.007 7.5082 193.286 5.05483L192.443 3.24116C186.929 5.80378 182.291 9.22956 178.545 13.5225L180.052 14.8375ZM193.281 5.05706C198.598 2.6203 204.834 1.38599 212.016 1.38599V-0.614006C204.606 -0.614006 198.075 0.659685 192.448 3.23893L193.281 5.05706ZM212.016 1.38599C219.199 1.38599 225.395 2.62046 230.633 5.05483L231.476 3.24116C225.921 0.659527 219.426 -0.614006 212.016 -0.614006V1.38599ZM230.633 5.05483C235.911 7.5082 240.317 10.7704 243.867 14.8375L245.374 13.5225C241.627 9.22956 236.989 5.80378 231.476 3.24116L230.633 5.05483ZM243.873 14.8444C247.437 18.8539 250.067 23.3008 251.77 28.1891L253.659 27.5309C251.866 22.3872 249.1 17.7141 245.368 13.5156L243.873 14.8444ZM251.775 28.2017C253.561 33.1153 254.45 38.0158 254.45 42.908H256.45C256.45 37.7682 255.515 32.6367 253.654 27.5183L251.775 28.2017ZM254.45 42.908V45.416H256.45V42.908H254.45ZM254.45 45.416C254.45 49.8472 253.601 54.5236 251.884 59.4509L253.773 60.1091C255.552 55.0044 256.45 50.1048 256.45 45.416H254.45ZM251.886 59.4464C250.179 64.2687 247.58 68.8034 244.077 73.0518L245.62 74.3242C249.261 69.9086 251.981 65.1713 253.771 60.1136L251.886 59.4464ZM244.07 73.06C240.675 77.2673 236.311 80.6749 230.959 83.2766L231.833 85.0754C237.425 82.3571 242.03 78.7727 245.626 74.316L244.07 73.06ZM230.969 83.2718C225.658 85.7799 219.35 87.052 212.016 87.052V89.052C219.579 89.052 226.191 87.7401 231.823 85.0802L230.969 83.2718ZM212.016 76.398C216.701 76.398 220.949 75.5387 224.745 73.7991L223.912 71.9809C220.411 73.5854 216.452 74.398 212.016 74.398V76.398ZM224.745 73.7991C228.513 72.0718 231.743 69.7109 234.422 66.7168L232.931 65.3832C230.442 68.165 227.439 70.3642 223.912 71.9809L224.745 73.7991ZM234.422 66.7168C237.095 63.7284 239.1 60.3067 240.435 56.4598L238.546 55.8042C237.296 59.4053 235.425 62.5956 232.931 65.3832L234.422 66.7168ZM240.429 56.4768C241.84 52.6366 242.542 48.5673 242.542 44.276H240.542C240.542 48.3447 239.877 52.1794 238.552 55.7872L240.429 56.4768ZM242.542 44.276C242.542 39.7634 241.842 35.5792 240.429 31.7332L238.552 32.4228C239.875 36.0248 240.542 39.9726 240.542 44.276H242.542ZM240.431 31.7393C239.021 27.8215 236.978 24.3989 234.299 21.4834L232.826 22.8366C235.315 25.5451 237.224 28.7345 238.549 32.4167L240.431 31.7393ZM234.317 21.5043C231.708 18.4997 228.507 16.1708 224.729 14.5178L223.927 16.3502C227.445 17.8892 230.401 20.0443 232.807 22.8157L234.317 21.5043ZM224.729 14.5178C220.938 12.8591 216.694 12.04 212.016 12.04V14.04C216.458 14.04 220.423 14.8169 223.927 16.3502L224.729 14.5178ZM212.016 12.04C207.338 12.04 203.095 12.8591 199.303 14.5178L200.105 16.3502C203.61 14.8169 207.574 14.04 212.016 14.04V12.04ZM199.303 14.5178C195.528 16.1697 192.293 18.4954 189.611 21.4932L191.102 22.8268C193.587 20.0486 196.585 17.8903 200.105 16.3502L199.303 14.5178ZM189.62 21.4834C186.941 24.3989 184.898 27.8215 183.487 31.7393L185.369 32.4167C186.695 28.7345 188.604 25.5451 191.093 22.8366L189.62 21.4834ZM183.484 31.7502C182.151 35.5913 181.49 39.7695 181.49 44.276H183.49C183.49 39.9665 184.122 36.0127 185.373 32.4058L183.484 31.7502ZM181.49 44.276C181.49 48.5608 182.153 52.6241 183.484 56.4598L185.373 55.8042C184.12 52.1919 183.49 48.3512 183.49 44.276H181.49ZM183.49 56.4768C184.9 60.3165 186.941 63.7324 189.611 66.7168L191.102 65.3832C188.604 62.5916 186.692 59.3955 185.367 55.7872L183.49 56.4768ZM189.611 66.7168C192.29 69.7109 195.519 72.0718 199.288 73.7991L200.121 71.9809C196.593 70.3642 193.591 68.165 191.102 65.3832L189.611 66.7168ZM199.288 73.7991C203.083 75.5387 207.332 76.398 212.016 76.398V74.398C207.58 74.398 203.621 73.5854 200.121 71.9809L199.288 73.7991ZM286.713 83.72L286.216 84.5875L286.223 84.5918L286.231 84.5959L286.713 83.72ZM274.857 71.294L273.963 71.7412L273.968 71.7514L274.857 71.294ZM270.867 2.78V1.78H269.867V2.78H270.867ZM284.547 2.78H285.547V1.78H284.547V2.78ZM287.055 65.138L287.945 64.6825L287.055 65.138ZM294.351 72.776L293.855 73.6442L293.863 73.6487L293.871 73.6531L294.351 72.776ZM317.721 72.776L317.241 71.8989L317.232 71.9039L317.721 72.776ZM327.525 2.78V1.78H326.525V2.78H327.525ZM341.205 2.78H342.205V1.78H341.205V2.78ZM337.215 71.294L336.321 70.8468L337.215 71.294ZM325.359 83.72L325.847 84.593L325.851 84.5906L325.359 83.72ZM306.093 87.052C298.539 87.052 292.256 85.6309 287.195 82.8441L286.231 84.5959C291.658 87.5851 298.295 89.052 306.093 89.052V87.052ZM287.211 82.8525C282.211 79.985 278.394 75.9858 275.746 70.8367L273.968 71.7514C276.792 77.2422 280.879 81.527 286.216 84.5875L287.211 82.8525ZM275.751 70.8468C273.173 65.6895 271.867 59.6538 271.867 52.712H269.867C269.867 59.9062 271.221 66.2585 273.963 71.7412L275.751 70.8468ZM271.867 52.712V2.78H269.867V52.712H271.867ZM270.867 3.78H284.547V1.78H270.867V3.78ZM283.547 2.78V53.852H285.547V2.78H283.547ZM283.547 53.852C283.547 58.2411 284.41 62.1636 286.165 65.5935L287.945 64.6825C286.356 61.5764 285.547 57.9749 285.547 53.852H283.547ZM286.165 65.5935C287.925 69.0347 290.494 71.724 293.855 73.6442L294.847 71.9078C291.824 70.18 289.529 67.7773 287.945 64.6825L286.165 65.5935ZM293.871 73.6531C297.245 75.5009 301.334 76.398 306.093 76.398V74.398C301.58 74.398 297.841 73.5471 294.831 71.8989L293.871 73.6531ZM306.093 76.398C310.851 76.398 314.907 75.5013 318.21 73.6481L317.232 71.9039C314.303 73.5467 310.607 74.398 306.093 74.398V76.398ZM318.201 73.6531C321.571 71.8079 324.145 69.1523 325.907 65.7075L324.127 64.7965C322.545 67.8877 320.255 70.2481 317.241 71.8989L318.201 73.6531ZM325.907 65.7075C327.663 62.2752 328.525 58.3139 328.525 53.852H326.525C326.525 58.054 325.715 61.6928 324.127 64.7965L325.907 65.7075ZM328.525 53.852V2.78H326.525V53.852H328.525ZM327.525 3.78H341.205V1.78H327.525V3.78ZM340.205 2.78V52.712H342.205V2.78H340.205ZM340.205 52.712C340.205 59.6538 338.899 65.6895 336.321 70.8468L338.109 71.7412C340.851 66.2585 342.205 59.9062 342.205 52.712H340.205ZM336.321 70.8468C333.751 75.9864 329.94 79.982 324.867 82.8494L325.851 84.5906C331.266 81.53 335.359 77.2416 338.109 71.7412L336.321 70.8468ZM324.871 82.8471C319.89 85.6306 313.648 87.052 306.093 87.052V89.052C313.891 89.052 320.492 87.5854 325.847 84.5929L324.871 82.8471ZM378.05 86H377.05V87H378.05V86ZM378.05 12.584V11.584H377.05V12.584H378.05ZM391.73 12.584H392.73V11.584H391.73V12.584ZM391.73 86V87H392.73V86H391.73ZM353.426 14.864H352.426V15.864H353.426V14.864ZM353.426 2.78V1.78H352.426V2.78H353.426ZM416.468 2.78H417.468V1.78H416.468V2.78ZM416.468 14.864V15.864H417.468V14.864H416.468ZM379.05 86V12.584H377.05V86H379.05ZM378.05 13.584H391.73V11.584H378.05V13.584ZM390.73 12.584V86H392.73V12.584H390.73ZM391.73 85H378.05V87H391.73V85ZM354.426 14.864V2.78H352.426V14.864H354.426ZM353.426 3.78H416.468V1.78H353.426V3.78ZM415.468 2.78V14.864H417.468V2.78H415.468ZM416.468 13.864H353.426V15.864H416.468V13.864ZM469.848 83.72L469.35 84.5875L469.358 84.5918L469.365 84.5959L469.848 83.72ZM457.992 71.294L457.097 71.7412L457.103 71.7514L457.992 71.294ZM454.002 2.78V1.78H453.002V2.78H454.002ZM467.682 2.78H468.682V1.78H467.682V2.78ZM470.19 65.138L471.08 64.6825L470.19 65.138ZM477.486 72.776L476.99 73.6442L476.998 73.6487L477.005 73.6531L477.486 72.776ZM500.856 72.776L500.375 71.8989L500.367 71.9039L500.856 72.776ZM510.66 2.78V1.78H509.66V2.78H510.66ZM524.34 2.78H525.34V1.78H524.34V2.78ZM520.35 71.294L519.455 70.8468L520.35 71.294ZM508.494 83.72L508.982 84.593L508.986 84.5906L508.494 83.72ZM489.228 87.052C481.674 87.052 475.39 85.6309 470.33 82.8441L469.365 84.5959C474.793 87.5851 481.43 89.052 489.228 89.052V87.052ZM470.345 82.8525C465.345 79.985 461.529 75.9858 458.881 70.8367L457.103 71.7514C459.926 77.2422 464.014 81.527 469.35 84.5875L470.345 82.8525ZM458.886 70.8468C456.308 65.6895 455.002 59.6538 455.002 52.712H453.002C453.002 59.9062 454.356 66.2585 457.097 71.7412L458.886 70.8468ZM455.002 52.712V2.78H453.002V52.712H455.002ZM454.002 3.78H467.682V1.78H454.002V3.78ZM466.682 2.78V53.852H468.682V2.78H466.682ZM466.682 53.852C466.682 58.2411 467.545 62.1636 469.3 65.5935L471.08 64.6825C469.491 61.5764 468.682 57.9749 468.682 53.852H466.682ZM469.3 65.5935C471.06 69.0347 473.629 71.724 476.99 73.6442L477.982 71.9078C474.958 70.18 472.663 67.7773 471.08 64.6825L469.3 65.5935ZM477.005 73.6531C480.38 75.5009 484.469 76.398 489.228 76.398V74.398C484.715 74.398 480.976 73.5471 477.966 71.8989L477.005 73.6531ZM489.228 76.398C493.986 76.398 498.042 75.5013 501.345 73.6481L500.367 71.9039C497.438 73.5467 493.742 74.398 489.228 74.398V76.398ZM501.336 73.6531C504.706 71.8079 507.28 69.1523 509.042 65.7075L507.262 64.7965C505.68 67.8877 503.39 70.2481 500.375 71.8989L501.336 73.6531ZM509.042 65.7075C510.798 62.2752 511.66 58.3139 511.66 53.852H509.66C509.66 58.054 508.849 61.6928 507.262 64.7965L509.042 65.7075ZM511.66 53.852V2.78H509.66V53.852H511.66ZM510.66 3.78H524.34V1.78H510.66V3.78ZM523.34 2.78V52.712H525.34V2.78H523.34ZM523.34 52.712C523.34 59.6538 522.034 65.6895 519.455 70.8468L521.244 71.7412C523.986 66.2585 525.34 59.9062 525.34 52.712H523.34ZM519.455 70.8468C516.886 75.9864 513.075 79.982 508.002 82.8494L508.986 84.5906C514.401 81.53 518.494 77.2416 521.244 71.7412L519.455 70.8468ZM508.006 82.8471C503.025 85.6306 496.782 87.052 489.228 87.052V89.052C497.025 89.052 503.627 87.5854 508.982 84.5929L508.006 82.8471ZM554.568 84.632L554.137 85.5346L554.145 85.5386L554.154 85.5424L554.568 84.632ZM543.282 75.056L542.435 75.5888L542.44 75.596L543.282 75.056ZM539.406 61.148V60.148H538.406V61.148H539.406ZM552.858 61.148H553.858V60.148H552.858V61.148ZM554.796 68.102L555.666 67.609L554.796 68.102ZM561.066 73.802L560.6 74.6869L560.609 74.6918L560.618 74.6964L561.066 73.802ZM583.866 74.03L583.466 73.1133L583.457 73.1172L583.866 74.03ZM590.364 68.9L589.536 68.3385L589.529 68.3488L589.522 68.3592L590.364 68.9ZM588.426 54.08L587.826 54.88L587.833 54.8854L587.84 54.8907L588.426 54.08ZM576.114 50.318L576.018 51.3135L576.031 51.3145L576.114 50.318ZM567.792 49.52L567.887 48.5246L567.879 48.5238L567.871 48.5231L567.792 49.52ZM549.438 42.452L548.762 43.1892L548.769 43.1953L549.438 42.452ZM546.246 12.584L545.411 12.0331L545.403 12.0449L546.246 12.584ZM556.734 3.69199L557.162 4.5955L557.175 4.58944L556.734 3.69199ZM588.198 3.69199L587.756 4.58953L587.769 4.59542L588.198 3.69199ZM598.572 12.812L597.72 13.3361L597.726 13.3457L597.732 13.3552L598.572 12.812ZM602.334 26.72V27.72H603.334V26.72H602.334ZM588.882 26.72H587.882V27.72H588.882V26.72ZM587.058 19.88L586.169 20.3394L586.179 20.358L586.189 20.3761L587.058 19.88ZM563.232 14.408L562.762 13.5248L562.751 13.5312L563.232 14.408ZM557.874 19.424L557.013 18.9142L557.874 19.424ZM559.242 33.56L558.522 34.2546L558.528 34.2609L558.534 34.2671L559.242 33.56ZM569.046 37.322L568.96 38.3183L568.963 38.3185L569.046 37.322ZM577.254 38.006L577.171 39.0026L577.176 39.003L577.254 38.006ZM592.416 41.768L591.981 42.6688L591.991 42.6734L592.001 42.6778L592.416 41.768ZM602.448 49.748L601.63 50.324L601.634 50.3301L601.639 50.3362L602.448 49.748ZM601.878 75.512L601.063 74.9322L601.055 74.9428L601.878 75.512ZM590.25 84.746L589.847 83.8305L589.842 83.8328L590.25 84.746ZM572.808 87.052C565.766 87.052 559.835 85.9278 554.981 83.7216L554.154 85.5424C559.332 87.8962 565.561 89.052 572.808 89.052V87.052ZM554.998 83.7294C550.202 81.4418 546.593 78.3657 544.123 74.516L542.44 75.596C545.138 79.8023 549.054 83.1102 554.137 85.5346L554.998 83.7294ZM544.128 74.5232C541.651 70.5893 540.406 66.1404 540.406 61.148H538.406C538.406 66.4916 539.744 71.3147 542.435 75.5888L544.128 74.5232ZM539.406 62.148H552.858V60.148H539.406V62.148ZM551.858 61.148C551.858 63.6956 552.558 66.1819 553.926 68.595L555.666 67.609C554.449 65.4621 553.858 63.3124 553.858 61.148H551.858ZM553.926 68.595C555.333 71.0783 557.584 73.0996 560.6 74.6869L561.531 72.9171C558.771 71.4644 556.842 69.6857 555.666 67.609L553.926 68.595ZM560.618 74.6964C563.699 76.2369 567.787 76.968 572.808 76.968V74.968C567.948 74.968 564.208 74.2551 561.513 72.9076L560.618 74.6964ZM572.808 76.968C577.378 76.968 581.216 76.311 584.274 74.9428L583.457 73.1172C580.74 74.333 577.205 74.968 572.808 74.968V76.968ZM584.265 74.9467C587.36 73.5976 589.704 71.7756 591.205 69.4408L589.522 68.3592C588.287 70.2804 586.299 71.8784 583.466 73.1133L584.265 74.9467ZM591.191 69.4615C592.748 67.167 593.53 64.6152 593.53 61.832H591.53C591.53 64.2168 590.867 66.377 589.536 68.3385L591.191 69.4615ZM593.53 61.832C593.53 58.2979 591.99 55.4207 589.011 53.2693L587.84 54.8907C590.333 56.6913 591.53 58.9821 591.53 61.832H593.53ZM589.026 53.28C586.074 51.0661 581.753 49.7845 576.197 49.3214L576.031 51.3145C581.418 51.7635 585.305 52.9899 587.826 54.88L589.026 53.28ZM576.209 49.3226L567.887 48.5246L567.696 50.5154L576.018 51.3134L576.209 49.3226ZM567.871 48.5231C560.357 47.928 554.465 45.6316 550.107 41.7087L548.769 43.1953C553.53 47.4804 559.874 49.896 567.713 50.5169L567.871 48.5231ZM550.113 41.7148C545.781 37.7431 543.598 32.5489 543.598 26.036H541.598C541.598 33.0511 543.975 38.8008 548.762 43.1891L550.113 41.7148ZM543.598 26.036C543.598 21.0306 544.773 16.7397 547.088 13.123L545.403 12.0449C542.854 16.0283 541.598 20.7054 541.598 26.036H543.598ZM547.08 13.1348C549.479 9.50082 552.828 6.65244 557.162 4.59542L556.305 2.78857C551.671 4.98755 548.029 8.06718 545.411 12.0331L547.08 13.1348ZM557.175 4.58944C561.498 2.46437 566.548 1.38599 572.352 1.38599V-0.614006C566.299 -0.614006 560.937 0.511618 556.292 2.79454L557.175 4.58944ZM572.352 1.38599C578.311 1.38599 583.436 2.46597 587.756 4.58944L588.639 2.79454C583.991 0.510019 578.552 -0.614006 572.352 -0.614006V1.38599ZM587.769 4.59542C592.091 6.64656 595.396 9.56037 597.72 13.3361L599.423 12.2879C596.883 8.15963 593.272 4.99343 588.626 2.78857L587.769 4.59542ZM597.732 13.3552C600.119 17.0436 601.334 21.4836 601.334 26.72H603.334C603.334 21.1644 602.041 16.3324 599.411 12.2687L597.732 13.3552ZM602.334 25.72H588.882V27.72H602.334V25.72ZM589.882 26.72C589.882 24.1126 589.227 21.6617 587.926 19.3839L586.189 20.3761C587.32 22.3543 587.882 24.4634 587.882 26.72H589.882ZM587.946 19.4206C586.705 17.0223 584.77 15.1017 582.19 13.6504L581.209 15.3936C583.493 16.6782 585.13 18.3297 586.169 20.3394L587.946 19.4206ZM582.19 13.6504C579.564 12.1732 576.264 11.47 572.352 11.47V13.47C576.039 13.47 578.971 14.1348 581.209 15.3936L582.19 13.6504ZM572.352 11.47C568.591 11.47 565.378 12.1353 562.762 13.5249L563.701 15.2911C565.949 14.0967 568.816 13.47 572.352 13.47V11.47ZM562.751 13.5312C560.258 14.8982 558.332 16.6893 557.013 18.9142L558.734 19.9338C559.847 18.0547 561.493 16.5018 563.712 15.2848L562.751 13.5312ZM557.013 18.9142C555.707 21.1185 555.05 23.4983 555.05 26.036H557.05C557.05 23.8617 557.608 21.8335 558.734 19.9338L557.013 18.9142ZM555.05 26.036C555.05 29.1315 556.232 31.8824 558.522 34.2546L559.961 32.8654C557.995 30.8296 557.05 28.5645 557.05 26.036H555.05ZM558.534 34.2671C560.892 36.6245 564.424 37.9273 568.96 38.3183L569.131 36.3257C564.851 35.9567 561.847 34.7515 559.949 32.8529L558.534 34.2671ZM568.963 38.3185L577.171 39.0025L577.337 37.0095L569.129 36.3255L568.963 38.3185ZM577.176 39.003C582.933 39.4516 587.861 40.682 591.981 42.6688L592.85 40.8672C588.459 38.75 583.278 37.4724 577.331 37.009L577.176 39.003ZM592.001 42.6778C596.198 44.5924 599.392 47.1473 601.63 50.324L603.265 49.172C600.791 45.6607 597.297 42.8956 592.831 40.8582L592.001 42.6778ZM601.639 50.3362C603.93 53.486 605.096 57.3006 605.096 61.832H607.096C607.096 56.9394 605.83 52.698 603.256 49.1598L601.639 50.3362ZM605.096 61.832C605.096 66.8066 603.746 71.1609 601.063 74.9322L602.692 76.0918C605.633 71.9591 607.096 67.1934 607.096 61.832H605.096ZM601.055 74.9428C598.439 78.7224 594.718 81.6902 589.847 83.8305L590.652 85.6615C595.813 83.3938 599.844 80.2056 602.7 76.0812L601.055 74.9428ZM589.842 83.8328C585.057 85.9677 579.388 87.052 572.808 87.052V89.052C579.604 89.052 585.562 87.9323 590.657 85.6592L589.842 83.8328Z" fill="white" mask="url(#path-1-outside-1_83_1050)"/>
</svg>
